ply
format ascii 1.0
comment Generated by mesh: https://github.com/dragonfly-ai/mesh
element vertex 254
property float x
property float y
property float z
property uchar red
property uchar green
property uchar blue
property uchar alpha
element face 504
property list uchar uint vertex_indices
end_header
0.0 0.0 0.0 0 0 0 255
1.0 0.0 0.0 0 0 0 255
0.984807753012208 0.17364817766693033 0.0 0 0 0 255
0.9396926207859084 0.3420201433256687 0.0 0 0 0 255
0.8660254037844387 0.49999999999999994 0.0 0 0 0 255
0.766044443118978 0.6427876096865393 0.0 0 0 0 255
0.6427876096865394 0.766044443118978 0.0 0 0 0 255
0.5000000000000001 0.8660254037844386 0.0 0 0 0 255
0.3420201433256688 0.9396926207859083 0.0 0 0 0 255
0.17364817766693041 0.984807753012208 0.0 0 0 0 255
6.123233995736766E-17 1.0 0.0 0 0 0 255
-0.1736481776669303 0.984807753012208 0.0 0 0 0 255
-0.3420201433256687 0.9396926207859084 0.0 0 0 0 255
-0.4999999999999998 0.8660254037844387 0.0 0 0 0 255
-0.6427876096865394 0.766044443118978 0.0 0 0 0 255
-0.7660444431189779 0.6427876096865395 0.0 0 0 0 255
-0.8660254037844387 0.49999999999999994 0.0 0 0 0 255
-0.9396926207859083 0.3420201433256689 0.0 0 0 0 255
-0.984807753012208 0.1736481776669307 0.0 0 0 0 255
-1.0 1.2246467991473532E-16 0.0 0 0 0 255
-0.9848077530122081 -0.17364817766693003 0.0 0 0 0 255
-0.9396926207859084 -0.34202014332566866 0.0 0 0 0 255
-0.8660254037844388 -0.4999999999999997 0.0 0 0 0 255
-0.766044443118978 -0.6427876096865393 0.0 0 0 0 255
-0.6427876096865395 -0.7660444431189779 0.0 0 0 0 255
-0.5000000000000004 -0.8660254037844384 0.0 0 0 0 255
-0.3420201433256694 -0.9396926207859082 0.0 0 0 0 255
-0.17364817766693033 -0.984807753012208 0.0 0 0 0 255
-1.8369701987210297E-16 -1.0 0.0 0 0 0 255
0.17364817766692997 -0.9848077530122081 0.0 0 0 0 255
0.34202014332566816 -0.9396926207859085 0.0 0 0 0 255
0.5000000000000001 -0.8660254037844386 0.0 0 0 0 255
0.6427876096865393 -0.7660444431189781 0.0 0 0 0 255
0.7660444431189778 -0.6427876096865396 0.0 0 0 0 255
0.8660254037844384 -0.5000000000000004 0.0 0 0 0 255
0.9396926207859081 -0.34202014332566943 0.0 0 0 0 255
0.984807753012208 -0.1736481776669304 0.0 0 0 0 255
1.0 -2.4492935982947064E-16 1.0 0 255 255 255
0.984807753012208 0.17364817766693033 1.0 0 213 255 255
0.9396926207859084 0.3420201433256687 1.0 0 170 255 255
0.8660254037844387 0.49999999999999994 1.0 0 128 255 255
0.766044443118978 0.6427876096865393 1.0 0 85 255 255
0.6427876096865394 0.766044443118978 1.0 0 42 255 255
0.5000000000000001 0.8660254037844386 1.0 0 0 255 255
0.3420201433256688 0.9396926207859083 1.0 43 0 255 255
0.17364817766693041 0.984807753012208 1.0 85 0 255 255
6.123233995736766E-17 1.0 1.0 128 0 255 255
-0.1736481776669303 0.984807753012208 1.0 170 0 255 255
-0.3420201433256687 0.9396926207859084 1.0 212 0 255 255
-0.4999999999999998 0.8660254037844387 1.0 255 0 255 255
-0.6427876096865394 0.766044443118978 1.0 255 0 212 255
-0.7660444431189779 0.6427876096865395 1.0 255 0 170 255
-0.8660254037844387 0.49999999999999994 1.0 255 0 127 255
-0.9396926207859083 0.3420201433256689 1.0 255 0 85 255
-0.984807753012208 0.1736481776669307 1.0 255 0 43 255
-1.0 1.2246467991473532E-16 1.0 255 0 0 255
-0.9848077530122081 -0.17364817766693003 1.0 255 42 0 255
-0.9396926207859084 -0.34202014332566866 1.0 255 85 0 255
-0.8660254037844388 -0.4999999999999997 1.0 255 127 0 255
-0.766044443118978 -0.6427876096865393 1.0 255 170 0 255
-0.6427876096865395 -0.7660444431189779 1.0 255 212 0 255
-0.5000000000000004 -0.8660254037844384 1.0 255 255 0 255
-0.3420201433256694 -0.9396926207859082 1.0 213 255 0 255
-0.17364817766693033 -0.984807753012208 1.0 170 255 0 255
-1.8369701987210297E-16 -1.0 1.0 128 255 0 255
0.17364817766692997 -0.9848077530122081 1.0 85 255 0 255
0.34202014332566816 -0.9396926207859085 1.0 43 255 0 255
0.5000000000000001 -0.8660254037844386 1.0 0 255 0 255
0.6427876096865393 -0.7660444431189781 1.0 0 255 42 255
0.7660444431189778 -0.6427876096865396 1.0 0 255 85 255
0.8660254037844384 -0.5000000000000004 1.0 0 255 127 255
0.9396926207859081 -0.34202014332566943 1.0 0 255 170 255
0.984807753012208 -0.1736481776669304 1.0 0 255 212 255
0.8333333333333334 -2.041077998578922E-16 1.0 42 255 255 255
0.8206731275101734 0.14470681472244196 1.0 42 220 255 255
0.7830771839882571 0.2850167861047239 1.0 42 184 255 255
0.7216878364870323 0.41666666666666663 1.0 42 149 255 255
0.638370369265815 0.5356563414054494 1.0 42 113 255 255
0.5356563414054495 0.638370369265815 1.0 42 78 255 255
0.4166666666666668 0.7216878364870322 1.0 42 43 255 255
0.28501678610472403 0.783077183988257 1.0 78 42 255 255
0.144706814722442 0.8206731275101734 1.0 113 42 255 255
5.102694996447305E-17 0.8333333333333334 1.0 149 42 255 255
-0.14470681472244193 0.8206731275101734 1.0 184 42 255 255
-0.2850167861047239 0.7830771839882571 1.0 220 42 255 255
-0.4166666666666665 0.7216878364870323 1.0 255 42 255 255
-0.5356563414054495 0.638370369265815 1.0 255 42 220 255
-0.6383703692658149 0.5356563414054496 1.0 255 42 184 255
-0.7216878364870323 0.41666666666666663 1.0 255 42 149 255
-0.783077183988257 0.2850167861047241 1.0 255 42 113 255
-0.8206731275101734 0.14470681472244226 1.0 255 42 78 255
-0.8333333333333334 1.020538999289461E-16 1.0 255 42 42 255
-0.8206731275101735 -0.1447068147224417 1.0 255 78 42 255
-0.7830771839882571 -0.2850167861047239 1.0 255 113 42 255
-0.7216878364870324 -0.41666666666666646 1.0 255 149 42 255
-0.638370369265815 -0.5356563414054494 1.0 255 184 42 255
-0.5356563414054496 -0.6383703692658149 1.0 255 220 42 255
-0.4166666666666671 -0.721687836487032 1.0 255 255 42 255
-0.2850167861047245 -0.7830771839882569 1.0 220 255 42 255
-0.14470681472244196 -0.8206731275101734 1.0 184 255 42 255
-1.5308084989341916E-16 -0.8333333333333334 1.0 149 255 42 255
0.14470681472244165 -0.8206731275101735 1.0 113 255 42 255
0.2850167861047235 -0.7830771839882571 1.0 78 255 43 255
0.4166666666666668 -0.7216878364870322 1.0 42 255 43 255
0.5356563414054494 -0.6383703692658151 1.0 42 255 78 255
0.6383703692658148 -0.5356563414054497 1.0 42 255 113 255
0.721687836487032 -0.4166666666666671 1.0 42 255 149 255
0.7830771839882568 -0.28501678610472453 1.0 42 255 184 255
0.8206731275101734 -0.14470681472244198 1.0 42 255 220 255
0.6666666666666667 -1.6328623988631378E-16 1.0 85 255 255 255
0.6565385020081388 0.11576545177795357 1.0 85 227 255 255
0.6264617471906057 0.22801342888377918 1.0 85 198 255 255
0.5773502691896258 0.3333333333333333 1.0 85 170 255 255
0.510696295412652 0.42852507312435956 1.0 85 142 255 255
0.4285250731243596 0.510696295412652 1.0 85 113 255 255
0.3333333333333334 0.5773502691896258 1.0 85 85 255 255
0.22801342888377923 0.6264617471906057 1.0 113 85 255 255
0.11576545177795362 0.6565385020081388 1.0 142 85 255 255
4.0821559971578444E-17 0.6666666666666667 1.0 170 85 255 255
-0.11576545177795355 0.6565385020081388 1.0 198 85 255 255
-0.22801342888377918 0.6264617471906057 1.0 227 85 255 255
-0.3333333333333332 0.5773502691896258 1.0 255 85 255 255
-0.4285250731243596 0.510696295412652 1.0 255 85 227 255
-0.510696295412652 0.4285250731243597 1.0 255 85 198 255
-0.5773502691896258 0.3333333333333333 1.0 255 85 170 255
-0.6264617471906057 0.2280134288837793 1.0 255 85 142 255
-0.6565385020081388 0.1157654517779538 1.0 255 85 113 255
-0.6666666666666667 8.164311994315689E-17 1.0 255 85 85 255
-0.6565385020081388 -0.11576545177795336 1.0 255 113 85 255
-0.6264617471906057 -0.22801342888377912 1.0 255 142 85 255
-0.577350269189626 -0.3333333333333332 1.0 255 170 85 255
-0.510696295412652 -0.42852507312435956 1.0 255 198 85 255
-0.4285250731243597 -0.510696295412652 1.0 255 227 85 255
-0.33333333333333365 -0.5773502691896256 1.0 255 255 85 255
-0.22801342888377962 -0.6264617471906055 1.0 227 255 85 255
-0.11576545177795357 -0.6565385020081388 1.0 198 255 85 255
-1.2246467991473532E-16 -0.6666666666666667 1.0 170 255 85 255
0.11576545177795333 -0.6565385020081388 1.0 142 255 85 255
0.2280134288837788 -0.6264617471906058 1.0 113 255 85 255
0.3333333333333334 -0.5773502691896258 1.0 85 255 85 255
0.42852507312435956 -0.5106962954126522 1.0 85 255 113 255
0.5106962954126519 -0.4285250731243598 1.0 85 255 142 255
0.5773502691896256 -0.33333333333333365 1.0 85 255 170 255
0.6264617471906054 -0.22801342888377965 1.0 85 255 198 255
0.6565385020081388 -0.11576545177795361 1.0 85 255 227 255
0.5 -1.2246467991473532E-16 1.0 128 255 255 255
0.492403876506104 0.08682408883346517 1.0 128 234 255 255
0.4698463103929542 0.17101007166283436 1.0 128 212 255 255
0.43301270189221935 0.24999999999999997 1.0 128 191 255 255
0.383022221559489 0.3213938048432696 1.0 128 170 255 255
0.3213938048432697 0.383022221559489 1.0 128 149 255 255
0.25000000000000006 0.4330127018922193 1.0 128 128 255 255
0.1710100716628344 0.46984631039295416 1.0 149 128 255 255
0.08682408883346521 0.492403876506104 1.0 170 128 255 255
3.061616997868383E-17 0.5 1.0 191 128 255 255
-0.08682408883346515 0.492403876506104 1.0 213 128 255 255
-0.17101007166283436 0.4698463103929542 1.0 234 128 255 255
-0.2499999999999999 0.43301270189221935 1.0 255 128 255 255
-0.3213938048432697 0.383022221559489 1.0 255 128 234 255
-0.38302222155948895 0.32139380484326974 1.0 255 128 213 255
-0.43301270189221935 0.24999999999999997 1.0 255 128 191 255
-0.46984631039295416 0.17101007166283444 1.0 255 128 170 255
-0.492403876506104 0.08682408883346535 1.0 255 128 149 255
-0.5 6.123233995736766E-17 1.0 255 128 128 255
-0.49240387650610407 -0.08682408883346501 1.0 255 149 128 255
-0.4698463103929542 -0.17101007166283433 1.0 255 170 128 255
-0.4330127018922194 -0.24999999999999986 1.0 255 191 128 255
-0.383022221559489 -0.3213938048432696 1.0 255 212 128 255
-0.32139380484326974 -0.38302222155948895 1.0 255 234 128 255
-0.2500000000000002 -0.4330127018922192 1.0 255 255 128 255
-0.1710100716628347 -0.4698463103929541 1.0 234 255 128 255
-0.08682408883346517 -0.492403876506104 1.0 212 255 128 255
-9.184850993605148E-17 -0.5 1.0 191 255 128 255
0.08682408883346499 -0.49240387650610407 1.0 170 255 128 255
0.17101007166283408 -0.46984631039295427 1.0 149 255 128 255
0.25000000000000006 -0.4330127018922193 1.0 128 255 128 255
0.3213938048432696 -0.38302222155948906 1.0 128 255 149 255
0.3830222215594889 -0.3213938048432698 1.0 128 255 170 255
0.4330127018922192 -0.2500000000000002 1.0 128 255 191 255
0.46984631039295405 -0.17101007166283472 1.0 128 255 212 255
0.492403876506104 -0.0868240888334652 1.0 128 255 234 255
0.33333333333333337 -8.164311994315689E-17 1.0 170 255 255 255
0.3282692510040694 0.057882725888976784 1.0 170 241 255 255
0.31323087359530283 0.11400671444188959 1.0 170 227 255 255
0.2886751345948129 0.16666666666666666 1.0 170 212 255 255
0.255348147706326 0.21426253656217978 1.0 170 198 255 255
0.2142625365621798 0.255348147706326 1.0 170 184 255 255
0.1666666666666667 0.2886751345948129 1.0 170 170 255 255
0.11400671444188962 0.31323087359530283 1.0 184 170 255 255
0.05788272588897681 0.3282692510040694 1.0 198 170 255 255
2.0410779985789222E-17 0.33333333333333337 1.0 212 170 255 255
-0.05788272588897678 0.3282692510040694 1.0 227 170 255 255
-0.11400671444188959 0.31323087359530283 1.0 241 170 255 255
-0.1666666666666666 0.2886751345948129 1.0 255 170 255 255
-0.2142625365621798 0.255348147706326 1.0 255 170 241 255
-0.255348147706326 0.21426253656217986 1.0 255 170 227 255
-0.2886751345948129 0.16666666666666666 1.0 255 170 212 255
-0.31323087359530283 0.11400671444188964 1.0 255 170 198 255
-0.3282692510040694 0.0578827258889769 1.0 255 170 184 255
-0.33333333333333337 4.0821559971578444E-17 1.0 255 170 170 255
-0.3282692510040694 -0.05788272588897668 1.0 255 184 170 255
-0.31323087359530283 -0.11400671444188956 1.0 255 198 170 255
-0.288675134594813 -0.1666666666666666 1.0 255 212 170 255
-0.255348147706326 -0.21426253656217978 1.0 255 227 170 255
-0.21426253656217986 -0.255348147706326 1.0 255 241 170 255
-0.16666666666666682 -0.2886751345948128 1.0 255 255 170 255
-0.11400671444188981 -0.3132308735953028 1.0 241 255 170 255
-0.057882725888976784 -0.3282692510040694 1.0 227 255 170 255
-6.123233995736766E-17 -0.33333333333333337 1.0 213 255 170 255
0.057882725888976666 -0.3282692510040694 1.0 198 255 170 255
0.1140067144418894 -0.3132308735953029 1.0 184 255 170 255
0.1666666666666667 -0.2886751345948129 1.0 170 255 170 255
0.21426253656217978 -0.2553481477063261 1.0 170 255 184 255
0.25534814770632597 -0.2142625365621799 1.0 170 255 198 255
0.2886751345948128 -0.16666666666666682 1.0 170 255 212 255
0.3132308735953027 -0.11400671444188983 1.0 170 255 227 255
0.3282692510040694 -0.057882725888976805 1.0 170 255 241 255
0.16666666666666663 -4.082155997157843E-17 1.0 213 255 255 255
0.16413462550203464 0.02894136294448838 1.0 213 248 255 255
0.15661543679765136 0.057003357220944774 1.0 213 241 255 255
0.14433756729740643 0.0833333333333333 1.0 213 234 255 255
0.12767407385316298 0.10713126828108985 1.0 213 227 255 255
0.10713126828108988 0.12767407385316298 1.0 213 220 255 255
0.08333333333333333 0.1443375672974064 1.0 213 213 255 255
0.057003357220944795 0.15661543679765136 1.0 220 213 255 255
0.028941362944488395 0.16413462550203464 1.0 227 213 255 255
1.0205389992894608E-17 0.16666666666666663 1.0 234 213 255 255
-0.028941362944488378 0.16413462550203464 1.0 241 213 255 255
-0.057003357220944774 0.15661543679765136 1.0 248 213 255 255
-0.08333333333333327 0.14433756729740643 1.0 255 213 255 255
-0.10713126828108988 0.12767407385316298 1.0 255 213 248 255
-0.12767407385316296 0.10713126828108989 1.0 255 213 241 255
-0.14433756729740643 0.0833333333333333 1.0 255 213 234 255
-0.15661543679765136 0.0570033572209448 1.0 255 213 227 255
-0.16413462550203464 0.02894136294448844 1.0 255 213 220 255
-0.16666666666666663 2.0410779985789216E-17 1.0 255 213 213 255
-0.16413462550203464 -0.02894136294448833 1.0 255 220 213 255
-0.15661543679765136 -0.05700335722094477 1.0 255 227 213 255
-0.14433756729740643 -0.08333333333333327 1.0 255 234 213 255
-0.12767407385316298 -0.10713126828108985 1.0 255 241 213 255
-0.10713126828108989 -0.12767407385316296 1.0 255 248 213 255
-0.08333333333333338 -0.14433756729740638 1.0 255 255 213 255
-0.057003357220944885 -0.15661543679765133 1.0 248 255 213 255
-0.02894136294448838 -0.16413462550203464 1.0 241 255 213 255
-3.0616169978683824E-17 -0.16666666666666663 1.0 234 255 213 255
0.028941362944488323 -0.16413462550203464 1.0 227 255 213 255
0.057003357220944684 -0.1566154367976514 1.0 220 255 213 255
0.08333333333333333 -0.1443375672974064 1.0 213 255 213 255
0.10713126828108985 -0.12767407385316298 1.0 213 255 220 255
0.12767407385316293 -0.1071312682810899 1.0 213 255 227 255
0.14433756729740638 -0.08333333333333338 1.0 213 255 234 255
0.1566154367976513 -0.05700335722094489 1.0 213 255 241 255
0.16413462550203464 -0.028941362944488392 1.0 213 255 248 255
0.0 0.0 1.0 255 255 255 255
3 0 2 1
3 253 217 218
3 0 3 2
3 253 218 219
3 0 4 3
3 253 219 220
3 0 5 4
3 253 220 221
3 0 6 5
3 253 221 222
3 0 7 6
3 253 222 223
3 0 8 7
3 253 223 224
3 0 9 8
3 253 224 225
3 0 10 9
3 253 225 226
3 0 11 10
3 253 226 227
3 0 12 11
3 253 227 228
3 0 13 12
3 253 228 229
3 0 14 13
3 253 229 230
3 0 15 14
3 253 230 231
3 0 16 15
3 253 231 232
3 0 17 16
3 253 232 233
3 0 18 17
3 253 233 234
3 0 19 18
3 253 234 235
3 0 20 19
3 253 235 236
3 0 21 20
3 253 236 237
3 0 22 21
3 253 237 238
3 0 23 22
3 253 238 239
3 0 24 23
3 253 239 240
3 0 25 24
3 253 240 241
3 0 26 25
3 253 241 242
3 0 27 26
3 253 242 243
3 0 28 27
3 253 243 244
3 0 29 28
3 253 244 245
3 0 30 29
3 253 245 246
3 0 31 30
3 253 246 247
3 0 32 31
3 253 247 248
3 0 33 32
3 253 248 249
3 0 34 33
3 253 249 250
3 0 35 34
3 253 250 251
3 0 36 35
3 253 251 252
3 0 1 36
3 253 252 217
3 37 2 38
3 37 1 2
3 38 3 39
3 38 2 3
3 39 4 40
3 39 3 4
3 40 5 41
3 40 4 5
3 41 6 42
3 41 5 6
3 42 7 43
3 42 6 7
3 43 8 44
3 43 7 8
3 44 9 45
3 44 8 9
3 45 10 46
3 45 9 10
3 46 11 47
3 46 10 11
3 47 12 48
3 47 11 12
3 48 13 49
3 48 12 13
3 49 14 50
3 49 13 14
3 50 15 51
3 50 14 15
3 51 16 52
3 51 15 16
3 52 17 53
3 52 16 17
3 53 18 54
3 53 17 18
3 54 19 55
3 54 18 19
3 55 20 56
3 55 19 20
3 56 21 57
3 56 20 21
3 57 22 58
3 57 21 22
3 58 23 59
3 58 22 23
3 59 24 60
3 59 23 24
3 60 25 61
3 60 24 25
3 61 26 62
3 61 25 26
3 62 27 63
3 62 26 27
3 63 28 64
3 63 27 28
3 64 29 65
3 64 28 29
3 65 30 66
3 65 29 30
3 66 31 67
3 66 30 31
3 67 32 68
3 67 31 32
3 68 33 69
3 68 32 33
3 69 34 70
3 69 33 34
3 70 35 71
3 70 34 35
3 71 36 72
3 71 35 36
3 72 1 37
3 72 36 1
3 73 38 74
3 73 37 38
3 74 39 75
3 74 38 39
3 75 40 76
3 75 39 40
3 76 41 77
3 76 40 41
3 77 42 78
3 77 41 42
3 78 43 79
3 78 42 43
3 79 44 80
3 79 43 44
3 80 45 81
3 80 44 45
3 81 46 82
3 81 45 46
3 82 47 83
3 82 46 47
3 83 48 84
3 83 47 48
3 84 49 85
3 84 48 49
3 85 50 86
3 85 49 50
3 86 51 87
3 86 50 51
3 87 52 88
3 87 51 52
3 88 53 89
3 88 52 53
3 89 54 90
3 89 53 54
3 90 55 91
3 90 54 55
3 91 56 92
3 91 55 56
3 92 57 93
3 92 56 57
3 93 58 94
3 93 57 58
3 94 59 95
3 94 58 59
3 95 60 96
3 95 59 60
3 96 61 97
3 96 60 61
3 97 62 98
3 97 61 62
3 98 63 99
3 98 62 63
3 99 64 100
3 99 63 64
3 100 65 101
3 100 64 65
3 101 66 102
3 101 65 66
3 102 67 103
3 102 66 67
3 103 68 104
3 103 67 68
3 104 69 105
3 104 68 69
3 105 70 106
3 105 69 70
3 106 71 107
3 106 70 71
3 107 72 108
3 107 71 72
3 108 37 73
3 108 72 37
3 109 74 110
3 109 73 74
3 110 75 111
3 110 74 75
3 111 76 112
3 111 75 76
3 112 77 113
3 112 76 77
3 113 78 114
3 113 77 78
3 114 79 115
3 114 78 79
3 115 80 116
3 115 79 80
3 116 81 117
3 116 80 81
3 117 82 118
3 117 81 82
3 118 83 119
3 118 82 83
3 119 84 120
3 119 83 84
3 120 85 121
3 120 84 85
3 121 86 122
3 121 85 86
3 122 87 123
3 122 86 87
3 123 88 124
3 123 87 88
3 124 89 125
3 124 88 89
3 125 90 126
3 125 89 90
3 126 91 127
3 126 90 91
3 127 92 128
3 127 91 92
3 128 93 129
3 128 92 93
3 129 94 130
3 129 93 94
3 130 95 131
3 130 94 95
3 131 96 132
3 131 95 96
3 132 97 133
3 132 96 97
3 133 98 134
3 133 97 98
3 134 99 135
3 134 98 99
3 135 100 136
3 135 99 100
3 136 101 137
3 136 100 101
3 137 102 138
3 137 101 102
3 138 103 139
3 138 102 103
3 139 104 140
3 139 103 104
3 140 105 141
3 140 104 105
3 141 106 142
3 141 105 106
3 142 107 143
3 142 106 107
3 143 108 144
3 143 107 108
3 144 73 109
3 144 108 73
3 145 110 146
3 145 109 110
3 146 111 147
3 146 110 111
3 147 112 148
3 147 111 112
3 148 113 149
3 148 112 113
3 149 114 150
3 149 113 114
3 150 115 151
3 150 114 115
3 151 116 152
3 151 115 116
3 152 117 153
3 152 116 117
3 153 118 154
3 153 117 118
3 154 119 155
3 154 118 119
3 155 120 156
3 155 119 120
3 156 121 157
3 156 120 121
3 157 122 158
3 157 121 122
3 158 123 159
3 158 122 123
3 159 124 160
3 159 123 124
3 160 125 161
3 160 124 125
3 161 126 162
3 161 125 126
3 162 127 163
3 162 126 127
3 163 128 164
3 163 127 128
3 164 129 165
3 164 128 129
3 165 130 166
3 165 129 130
3 166 131 167
3 166 130 131
3 167 132 168
3 167 131 132
3 168 133 169
3 168 132 133
3 169 134 170
3 169 133 134
3 170 135 171
3 170 134 135
3 171 136 172
3 171 135 136
3 172 137 173
3 172 136 137
3 173 138 174
3 173 137 138
3 174 139 175
3 174 138 139
3 175 140 176
3 175 139 140
3 176 141 177
3 176 140 141
3 177 142 178
3 177 141 142
3 178 143 179
3 178 142 143
3 179 144 180
3 179 143 144
3 180 109 145
3 180 144 109
3 181 146 182
3 181 145 146
3 182 147 183
3 182 146 147
3 183 148 184
3 183 147 148
3 184 149 185
3 184 148 149
3 185 150 186
3 185 149 150
3 186 151 187
3 186 150 151
3 187 152 188
3 187 151 152
3 188 153 189
3 188 152 153
3 189 154 190
3 189 153 154
3 190 155 191
3 190 154 155
3 191 156 192
3 191 155 156
3 192 157 193
3 192 156 157
3 193 158 194
3 193 157 158
3 194 159 195
3 194 158 159
3 195 160 196
3 195 159 160
3 196 161 197
3 196 160 161
3 197 162 198
3 197 161 162
3 198 163 199
3 198 162 163
3 199 164 200
3 199 163 164
3 200 165 201
3 200 164 165
3 201 166 202
3 201 165 166
3 202 167 203
3 202 166 167
3 203 168 204
3 203 167 168
3 204 169 205
3 204 168 169
3 205 170 206
3 205 169 170
3 206 171 207
3 206 170 171
3 207 172 208
3 207 171 172
3 208 173 209
3 208 172 173
3 209 174 210
3 209 173 174
3 210 175 211
3 210 174 175
3 211 176 212
3 211 175 176
3 212 177 213
3 212 176 177
3 213 178 214
3 213 177 178
3 214 179 215
3 214 178 179
3 215 180 216
3 215 179 180
3 216 145 181
3 216 180 145
3 217 182 218
3 217 181 182
3 218 183 219
3 218 182 183
3 219 184 220
3 219 183 184
3 220 185 221
3 220 184 185
3 221 186 222
3 221 185 186
3 222 187 223
3 222 186 187
3 223 188 224
3 223 187 188
3 224 189 225
3 224 188 189
3 225 190 226
3 225 189 190
3 226 191 227
3 226 190 191
3 227 192 228
3 227 191 192
3 228 193 229
3 228 192 193
3 229 194 230
3 229 193 194
3 230 195 231
3 230 194 195
3 231 196 232
3 231 195 196
3 232 197 233
3 232 196 197
3 233 198 234
3 233 197 198
3 234 199 235
3 234 198 199
3 235 200 236
3 235 199 200
3 236 201 237
3 236 200 201
3 237 202 238
3 237 201 202
3 238 203 239
3 238 202 203
3 239 204 240
3 239 203 204
3 240 205 241
3 240 204 205
3 241 206 242
3 241 205 206
3 242 207 243
3 242 206 207
3 243 208 244
3 243 207 208
3 244 209 245
3 244 208 209
3 245 210 246
3 245 209 210
3 246 211 247
3 246 210 211
3 247 212 248
3 247 211 212
3 248 213 249
3 248 212 213
3 249 214 250
3 249 213 214
3 250 215 251
3 250 214 215
3 251 216 252
3 251 215 216
3 252 181 217
3 252 216 181
